<svg xmlns="http://www.w3.org/2000/svg" version="1.1" width="200" height="200" viewBox="0 0 200 200"><defs/><ellipse cx="100" cy="100" rx="87.5" ry="87.5" fill="#ffffff" stroke="#808080" style="stroke-width: 5px" stroke-width="5"/><path fill="none" stroke="#808080" d="M 183.5,100 L 179.5,100" style="stroke-width: 4px" stroke-width="4" transform=""/><path fill="none" stroke="#808080" d="M 183.5,100 L 179.5,100" style="stroke-width: 4px" stroke-width="4" transform="rotate(30 100 100)"/><path fill="none" stroke="#808080" d="M 183.5,100 L 179.5,100" style="stroke-width: 4px" stroke-width="4" transform="rotate(60 100 100)"/><path fill="none" stroke="#808080" d="M 183.5,100 L 179.5,100" style="stroke-width: 4px" stroke-width="4" transform="rotate(90 100 100)"/><path fill="none" stroke="#808080" d="M 183.5,100 L 179.5,100" style="stroke-width: 4px" stroke-width="4" transform="rotate(120 100 100)"/><path fill="none" stroke="#808080" d="M 183.5,100 L 179.5,100" style="stroke-width: 4px" stroke-width="4" transform="rotate(150 100 100)"/><path fill="none" stroke="#808080" d="M 183.5,100 L 179.5,100" style="stroke-width: 4px" stroke-width="4" transform="rotate(180 100 100)"/><path fill="none" stroke="#808080" d="M 183.5,100 L 179.5,100" style="stroke-width: 4px" stroke-width="4" transform="rotate(210 100 100)"/><path fill="none" stroke="#808080" d="M 183.5,100 L 179.5,100" style="stroke-width: 4px" stroke-width="4" transform="rotate(240 100 100)"/><path fill="none" stroke="#808080" d="M 183.5,100 L 179.5,100" style="stroke-width: 4px" stroke-width="4" transform="rotate(270 100 100)"/><path fill="none" stroke="#808080" d="M 183.5,100 L 179.5,100" style="stroke-width: 4px" stroke-width="4" transform="rotate(300 100 100)"/><path fill="none" stroke="#808080" d="M 183.5,100 L 179.5,100" style="stroke-width: 4px" stroke-width="4" transform="rotate(330 100 100)"/><path fill="none" stroke="#808080" d="M 183.5,100 L 179.5,100" style="stroke-width: 1px" stroke-width="1" transform=""/><path fill="none" stroke="#808080" d="M 183.5,100 L 179.5,100" style="stroke-width: 1px" stroke-width="1" transform="rotate(6 100 100)"/><path fill="none" stroke="#808080" d="M 183.5,100 L 179.5,100" style="stroke-width: 1px" stroke-width="1" transform="rotate(12 100 100)"/><path fill="none" stroke="#808080" d="M 183.5,100 L 179.5,100" style="stroke-width: 1px" stroke-width="1" transform="rotate(18 100 100)"/><path fill="none" stroke="#808080" d="M 183.5,100 L 179.5,100" style="stroke-width: 1px" stroke-width="1" transform="rotate(24 100 100)"/><path fill="none" stroke="#808080" d="M 183.5,100 L 179.5,100" style="stroke-width: 1px" stroke-width="1" transform="rotate(30 100 100)"/><path fill="none" stroke="#808080" d="M 183.5,100 L 179.5,100" style="stroke-width: 1px" stroke-width="1" transform="rotate(36 100 100)"/><path fill="none" stroke="#808080" d="M 183.5,100 L 179.5,100" style="stroke-width: 1px" stroke-width="1" transform="rotate(42 100 100)"/><path fill="none" stroke="#808080" d="M 183.5,100 L 179.5,100" style="stroke-width: 1px" stroke-width="1" transform="rotate(48 100 100)"/><path fill="none" stroke="#808080" d="M 183.5,100 L 179.5,100" style="stroke-width: 1px" stroke-width="1" transform="rotate(54 100 100)"/><path fill="none" stroke="#808080" d="M 183.5,100 L 179.5,100" style="stroke-width: 1px" stroke-width="1" transform="rotate(60 100 100)"/><path fill="none" stroke="#808080" d="M 183.5,100 L 179.5,100" style="stroke-width: 1px" stroke-width="1" transform="rotate(66 100 100)"/><path fill="none" stroke="#808080" d="M 183.5,100 L 179.5,100" style="stroke-width: 1px" stroke-width="1" transform="rotate(72 100 100)"/><path fill="none" stroke="#808080" d="M 183.5,100 L 179.5,100" style="stroke-width: 1px" stroke-width="1" transform="rotate(78 100 100)"/><path fill="none" stroke="#808080" d="M 183.5,100 L 179.5,100" style="stroke-width: 1px" stroke-width="1" transform="rotate(84 100 100)"/><path fill="none" stroke="#808080" d="M 183.5,100 L 179.5,100" style="stroke-width: 1px" stroke-width="1" transform="rotate(90 100 100)"/><path fill="none" stroke="#808080" d="M 183.5,100 L 179.5,100" style="stroke-width: 1px" stroke-width="1" transform="rotate(96 100 100)"/><path fill="none" stroke="#808080" d="M 183.5,100 L 179.5,100" style="stroke-width: 1px" stroke-width="1" transform="rotate(102 100 100)"/><path fill="none" stroke="#808080" d="M 183.5,100 L 179.5,100" style="stroke-width: 1px" stroke-width="1" transform="rotate(108 100 100)"/><path fill="none" stroke="#808080" d="M 183.5,100 L 179.5,100" style="stroke-width: 1px" stroke-width="1" transform="rotate(114 100 100)"/><path fill="none" stroke="#808080" d="M 183.5,100 L 179.5,100" style="stroke-width: 1px" stroke-width="1" transform="rotate(120 100 100)"/><path fill="none" stroke="#808080" d="M 183.5,100 L 179.5,100" style="stroke-width: 1px" stroke-width="1" transform="rotate(126 100 100)"/><path fill="none" stroke="#808080" d="M 183.5,100 L 179.5,100" style="stroke-width: 1px" stroke-width="1" transform="rotate(132 100 100)"/><path fill="none" stroke="#808080" d="M 183.5,100 L 179.5,100" style="stroke-width: 1px" stroke-width="1" transform="rotate(138 100 100)"/><path fill="none" stroke="#808080" d="M 183.5,100 L 179.5,100" style="stroke-width: 1px" stroke-width="1" transform="rotate(144 100 100)"/><path fill="none" stroke="#808080" d="M 183.5,100 L 179.5,100" style="stroke-width: 1px" stroke-width="1" transform="rotate(150 100 100)"/><path fill="none" stroke="#808080" d="M 183.5,100 L 179.5,100" style="stroke-width: 1px" stroke-width="1" transform="rotate(156 100 100)"/><path fill="none" stroke="#808080" d="M 183.5,100 L 179.5,100" style="stroke-width: 1px" stroke-width="1" transform="rotate(162 100 100)"/><path fill="none" stroke="#808080" d="M 183.5,100 L 179.5,100" style="stroke-width: 1px" stroke-width="1" transform="rotate(168 100 100)"/><path fill="none" stroke="#808080" d="M 183.5,100 L 179.5,100" style="stroke-width: 1px" stroke-width="1" transform="rotate(174 100 100)"/><path fill="none" stroke="#808080" d="M 183.5,100 L 179.5,100" style="stroke-width: 1px" stroke-width="1" transform="rotate(180 100 100)"/><path fill="none" stroke="#808080" d="M 183.5,100 L 179.5,100" style="stroke-width: 1px" stroke-width="1" transform="rotate(186 100 100)"/><path fill="none" stroke="#808080" d="M 183.5,100 L 179.5,100" style="stroke-width: 1px" stroke-width="1" transform="rotate(192 100 100)"/><path fill="none" stroke="#808080" d="M 183.5,100 L 179.5,100" style="stroke-width: 1px" stroke-width="1" transform="rotate(198 100 100)"/><path fill="none" stroke="#808080" d="M 183.5,100 L 179.5,100" style="stroke-width: 1px" stroke-width="1" transform="rotate(204 100 100)"/><path fill="none" stroke="#808080" d="M 183.5,100 L 179.5,100" style="stroke-width: 1px" stroke-width="1" transform="rotate(210 100 100)"/><path fill="none" stroke="#808080" d="M 183.5,100 L 179.5,100" style="stroke-width: 1px" stroke-width="1" transform="rotate(216 100 100)"/><path fill="none" stroke="#808080" d="M 183.5,100 L 179.5,100" style="stroke-width: 1px" stroke-width="1" transform="rotate(222 100 100)"/><path fill="none" stroke="#808080" d="M 183.5,100 L 179.5,100" style="stroke-width: 1px" stroke-width="1" transform="rotate(228 100 100)"/><path fill="none" stroke="#808080" d="M 183.5,100 L 179.5,100" style="stroke-width: 1px" stroke-width="1" transform="rotate(234 100 100)"/><path fill="none" stroke="#808080" d="M 183.5,100 L 179.5,100" style="stroke-width: 1px" stroke-width="1" transform="rotate(240 100 100)"/><path fill="none" stroke="#808080" d="M 183.5,100 L 179.5,100" style="stroke-width: 1px" stroke-width="1" transform="rotate(246 100 100)"/><path fill="none" stroke="#808080" d="M 183.5,100 L 179.5,100" style="stroke-width: 1px" stroke-width="1" transform="rotate(252 100 100)"/><path fill="none" stroke="#808080" d="M 183.5,100 L 179.5,100" style="stroke-width: 1px" stroke-width="1" transform="rotate(258 100 100)"/><path fill="none" stroke="#808080" d="M 183.5,100 L 179.5,100" style="stroke-width: 1px" stroke-width="1" transform="rotate(264 100 100)"/><path fill="none" stroke="#808080" d="M 183.5,100 L 179.5,100" style="stroke-width: 1px" stroke-width="1" transform="rotate(270 100 100)"/><path fill="none" stroke="#808080" d="M 183.5,100 L 179.5,100" style="stroke-width: 1px" stroke-width="1" transform="rotate(276 100 100)"/><path fill="none" stroke="#808080" d="M 183.5,100 L 179.5,100" style="stroke-width: 1px" stroke-width="1" transform="rotate(282 100 100)"/><path fill="none" stroke="#808080" d="M 183.5,100 L 179.5,100" style="stroke-width: 1px" stroke-width="1" transform="rotate(288 100 100)"/><path fill="none" stroke="#808080" d="M 183.5,100 L 179.5,100" style="stroke-width: 1px" stroke-width="1" transform="rotate(294 100 100)"/><path fill="none" stroke="#808080" d="M 183.5,100 L 179.5,100" style="stroke-width: 1px" stroke-width="1" transform="rotate(300 100 100)"/><path fill="none" stroke="#808080" d="M 183.5,100 L 179.5,100" style="stroke-width: 1px" stroke-width="1" transform="rotate(306 100 100)"/><path fill="none" stroke="#808080" d="M 183.5,100 L 179.5,100" style="stroke-width: 1px" stroke-width="1" transform="rotate(312 100 100)"/><path fill="none" stroke="#808080" d="M 183.5,100 L 179.5,100" style="stroke-width: 1px" stroke-width="1" transform="rotate(318 100 100)"/><path fill="none" stroke="#808080" d="M 183.5,100 L 179.5,100" style="stroke-width: 1px" stroke-width="1" transform="rotate(324 100 100)"/><path fill="none" stroke="#808080" d="M 183.5,100 L 179.5,100" style="stroke-width: 1px" stroke-width="1" transform="rotate(330 100 100)"/><path fill="none" stroke="#808080" d="M 183.5,100 L 179.5,100" style="stroke-width: 1px" stroke-width="1" transform="rotate(336 100 100)"/><path fill="none" stroke="#808080" d="M 183.5,100 L 179.5,100" style="stroke-width: 1px" stroke-width="1" transform="rotate(342 100 100)"/><path fill="none" stroke="#808080" d="M 183.5,100 L 179.5,100" style="stroke-width: 1px" stroke-width="1" transform="rotate(348 100 100)"/><path fill="none" stroke="#808080" d="M 183.5,100 L 179.5,100" style="stroke-width: 1px" stroke-width="1" transform="rotate(354 100 100)"/><path fill="#333333" stroke="none" d="M 86.875,96.9375 L 139.375,98.25 L 139.375,101.75 L 86.875,103.062 Z" style="stroke-width: 2px" stroke-width="2" transform="rotate(-90 100 100)"/><path fill="#333333" stroke="none" d="M 86.875,96.9375 L 174.375,98.5125 L 174.375,101.487 L 86.875,103.062 Z" style="stroke-width: 2px" stroke-width="2" transform="rotate(-90 100 100)"/></svg>